<svg width="976" height="298" viewBox="0 0 976 298" fill="none" xmlns="http://www.w3.org/2000/svg">
<path d="M19.4275 56.652C21.5141 41.1332 31.9608 27.7141 46.5807 21.7486C53.7446 18.7727 61.5066 17.8689 69.2686 18.7727C76.7246 19.6627 84.1945 22.0545 91.9426 26.5182C102.681 32.4977 113.434 41.7311 125.968 55.4561C106.27 79.6243 94.3352 101.693 89.8561 121.383C87.7695 130.631 87.4635 138.988 88.3677 146.747C89.564 154.201 92.2487 161.07 96.4218 167.036C105.672 180.455 121.196 188.214 138.501 188.214C155.805 188.214 171.33 180.163 180.58 167.036C184.753 161.07 187.438 154.201 188.634 146.747C189.83 138.988 189.524 130.338 187.146 121.383C182.666 101.693 170.439 79.3183 151.034 55.164C163.275 41.4391 174.306 32.1918 185.059 26.2262C192.821 21.7485 200.277 19.3568 207.733 18.4668C215.426 17.6046 223.201 18.6337 230.407 21.4426C245.027 27.4082 255.474 40.8411 257.56 56.346C258.451 63.7995 257.852 71.253 254.876 79.6103C253.985 82.6001 252.483 85.5759 250.995 89.1497C248.908 93.9193 246.515 98.9949 244.137 104.071L243.831 104.668C223.243 149.125 201.153 194.472 178.173 238.622L177.283 240.416C174.891 244.88 172.512 249.664 170.119 254.141C167.727 258.911 165.042 263.389 161.759 267.268C155.486 274.43 147.139 278.309 137.889 278.309C128.638 278.309 120.278 274.43 114.019 267.268C110.736 263.389 108.051 258.911 105.658 254.141C103.266 249.664 100.887 244.894 98.4945 240.43L97.5903 238.636C74.9163 194.194 52.8265 148.847 32.2391 104.39L32.2391 104.098C29.8465 99.3287 27.7599 93.9472 25.3812 89.1775C23.8928 85.5898 22.3905 82.614 21.5002 79.6382C19.1215 71.8649 18.2312 64.4114 19.4275 56.652ZM138.501 70.6829C154.609 90.9713 165.056 110.064 168.645 126.167C170.133 133.036 170.439 139.002 169.535 144.369C168.937 149.139 167.142 153.325 164.764 156.898C159.088 164.95 149.546 170.025 138.501 170.025C127.456 170.025 117.607 165.242 112.238 156.898C109.845 153.311 108.065 149.139 107.467 144.369C106.576 139.002 106.869 132.73 108.357 126.167C111.932 110.356 122.379 91.2634 138.501 70.6829ZM3.9035 86.1878C5.39192 89.7616 6.89424 93.6412 8.38265 96.923C10.7752 102.291 13.1539 107.366 15.2544 112.136L15.5465 112.428C36.134 157.177 58.2237 202.523 81.4959 247.272L82.3862 249.066C84.7788 253.543 87.1575 258.313 89.5501 263.083C92.5408 268.45 95.5176 274.124 100.289 279.491C109.845 291.437 123.575 298 138.195 298C153.121 298 166.544 291.437 176.407 280.103C180.886 274.736 184.169 269.062 187.146 263.695C189.538 258.925 191.917 254.155 194.31 249.678L195.2 247.898C218.18 203.149 240.562 157.802 261.149 113.054L261.441 112.456C263.528 107.686 265.92 102.61 268.313 97.2428C269.913 93.7108 271.401 90.1231 272.792 86.5076C276.673 75.4664 277.87 65.0232 276.381 54.288C273.098 31.9136 258.172 13.1131 237.585 4.76964C229.823 1.48789 221.769 -3.0681e-05 213.409 -2.99501e-05C211.016 -2.9741e-05 208.039 0.291998 205.647 0.597924C195.798 1.79382 185.657 5.06166 175.809 10.7352C163.567 17.5907 151.938 27.436 138.807 41.7589C125.675 27.436 113.74 17.5907 101.805 10.7352C91.9565 5.06166 81.8158 1.79383 71.9672 0.597936C69.5746 0.29201 66.5978 -1.71155e-05 64.2052 -1.69064e-05C55.8451 -1.61755e-05 47.4988 1.48791 40.0289 4.76966C19.1354 13.127 4.51554 32.2196 1.23268 54.288C-1.15991 64.7173 0.0363976 75.1466 3.9035 86.1878Z" fill="#FF5A5F"/>
<path d="M404.15 93.2736C397.71 93.2736 392.573 93.8102 388.74 94.8835C384.907 95.9569 382.147 97.9502 380.46 100.864C378.927 103.777 378.083 108.07 377.93 113.744H394.95V137.894H377.93V228.744H350.79V137.894H334V113.744H351.02C351.02 98.2569 355.237 86.2202 363.67 77.6336C372.103 69.0469 385.597 65.2136 404.15 66.1335V93.2736Z" fill="#FF5A5F"/>
<path d="M459.801 231.274C448.761 231.274 439.024 228.897 430.591 224.144C422.311 219.237 415.794 212.49 411.041 203.904C406.441 195.164 404.141 185.044 404.141 173.544C404.141 153.304 409.201 138.047 419.321 127.774C429.594 117.347 443.088 112.134 459.801 112.134C470.688 112.134 480.271 114.434 488.551 119.034C496.984 123.634 503.578 130.534 508.331 139.734C513.084 148.78 515.461 160.05 515.461 173.544C515.461 185.044 513.084 195.164 508.331 203.904C503.578 212.49 496.984 219.237 488.551 224.144C480.271 228.897 470.688 231.274 459.801 231.274ZM459.801 204.824C466.088 204.824 471.378 203.367 475.671 200.454C480.118 197.387 483.414 193.477 485.561 188.724C487.861 183.97 489.011 178.91 489.011 173.544C489.011 163.884 486.481 155.68 481.421 148.934C476.514 142.034 469.308 138.584 459.801 138.584C450.601 138.584 443.394 141.88 438.181 148.474C433.121 155.067 430.591 163.424 430.591 173.544C430.591 179.064 431.741 184.2 434.041 188.954C436.341 193.707 439.638 197.54 443.931 200.454C448.378 203.367 453.668 204.824 459.801 204.824Z" fill="#FF5A5F"/>
<path d="M578.233 231.274C567.193 231.274 557.456 228.897 549.023 224.144C540.743 219.237 534.226 212.49 529.473 203.904C524.873 195.164 522.573 185.044 522.573 173.544C522.573 153.304 527.633 138.047 537.753 127.774C548.026 117.347 561.52 112.134 578.233 112.134C589.12 112.134 598.703 114.434 606.983 119.034C615.416 123.634 622.01 130.534 626.763 139.734C631.516 148.78 633.893 160.05 633.893 173.544C633.893 185.044 631.516 195.164 626.763 203.904C622.01 212.49 615.416 219.237 606.983 224.144C598.703 228.897 589.12 231.274 578.233 231.274ZM578.233 204.824C584.52 204.824 589.81 203.367 594.103 200.454C598.55 197.387 601.846 193.477 603.993 188.724C606.293 183.97 607.443 178.91 607.443 173.544C607.443 163.884 604.913 155.68 599.853 148.934C594.946 142.034 587.74 138.584 578.233 138.584C569.033 138.584 561.826 141.88 556.613 148.474C551.553 155.067 549.023 163.424 549.023 173.544C549.023 179.064 550.173 184.2 552.473 188.954C554.773 193.707 558.07 197.54 562.363 200.454C566.81 203.367 572.1 204.824 578.233 204.824Z" fill="#FF5A5F"/>
<path d="M670.215 226.214C663.468 223.147 657.948 218.7 653.655 212.874C649.362 206.894 646.142 200.07 643.995 192.404C642.002 184.737 641.005 176.84 641.005 168.714C641.005 158.134 642.922 148.55 646.755 139.964C650.588 131.377 656.185 124.554 663.545 119.494C671.058 114.28 680.258 111.674 691.145 111.674C694.672 111.674 698.735 112.057 703.335 112.824C708.088 113.59 711.922 115.047 714.835 117.194V67.2835H742.435V228.284H714.835V219.084C712.228 222.15 708.242 224.604 702.875 226.444C697.508 228.13 691.835 228.974 685.855 228.974C680.028 229.127 674.815 228.207 670.215 226.214ZM714.835 196.084V143.184C706.862 139.964 699.348 138.89 692.295 139.964C685.395 141.037 679.722 144.027 675.275 148.934C670.982 153.687 668.835 160.28 668.835 168.714C668.835 178.68 670.982 186.577 675.275 192.404C679.568 198.077 685.165 201.374 692.065 202.294C699.118 203.06 706.708 200.99 714.835 196.084Z" fill="#FF5A5F"/>
<path d="M862.093 228.284H834.493V161.124C834.493 154.837 833.266 150.16 830.813 147.094C828.513 143.874 825.599 141.727 822.073 140.654C818.699 139.58 815.403 139.044 812.183 139.044C809.116 139.044 805.513 139.58 801.373 140.654C797.386 141.727 793.859 143.874 790.793 147.094C787.726 150.16 786.193 154.837 786.193 161.124V228.284H758.593V113.284H786.193V121.564C788.799 118.037 792.863 115.584 798.383 114.204C803.903 112.67 809.193 111.904 814.253 111.904C824.066 111.904 832.499 113.974 839.553 118.114C846.759 122.254 852.279 128.004 856.113 135.364C860.099 142.724 862.093 151.31 862.093 161.124V228.284Z" fill="#FF5A5F"/>
<path d="M902.812 226.214C896.065 223.147 890.545 218.7 886.252 212.874C881.958 206.894 878.738 200.07 876.592 192.404C874.598 184.737 873.602 176.84 873.602 168.714C873.602 158.134 875.518 148.55 879.352 139.964C883.185 131.377 888.782 124.554 896.142 119.494C903.655 114.28 912.855 111.674 923.742 111.674C927.268 111.674 931.332 112.057 935.932 112.824C940.685 113.59 944.518 115.047 947.432 117.194V67.2835H975.032V228.284H947.432V219.084C944.825 222.15 940.838 224.604 935.472 226.444C930.105 228.13 924.432 228.974 918.452 228.974C912.625 229.127 907.412 228.207 902.812 226.214ZM947.432 196.084V143.184C939.458 139.964 931.945 138.89 924.892 139.964C917.992 141.037 912.318 144.027 907.872 148.934C903.578 153.687 901.432 160.28 901.432 168.714C901.432 178.68 903.578 186.577 907.872 192.404C912.165 198.077 917.762 201.374 924.662 202.294C931.715 203.06 939.305 200.99 947.432 196.084Z" fill="#FF5A5F"/>
</svg>
