<svg width="277" height="298" viewBox="0 0 277 298" fill="none" xmlns="http://www.w3.org/2000/svg">
<path d="M19.4275 56.652C21.5141 41.1332 31.9608 27.7141 46.5807 21.7486C53.7446 18.7727 61.5066 17.8689 69.2686 18.7727C76.7246 19.6627 84.1945 22.0545 91.9426 26.5182C102.681 32.4977 113.434 41.7311 125.968 55.4561C106.27 79.6243 94.3352 101.693 89.8561 121.383C87.7695 130.631 87.4635 138.988 88.3677 146.747C89.564 154.201 92.2487 161.07 96.4218 167.036C105.672 180.455 121.196 188.214 138.501 188.214C155.805 188.214 171.33 180.163 180.58 167.036C184.753 161.07 187.438 154.201 188.634 146.747C189.83 138.988 189.524 130.338 187.146 121.383C182.666 101.693 170.439 79.3183 151.034 55.164C163.275 41.4391 174.306 32.1918 185.059 26.2262C192.821 21.7485 200.277 19.3568 207.733 18.4668C215.426 17.6046 223.201 18.6337 230.407 21.4426C245.027 27.4082 255.474 40.8411 257.56 56.346C258.451 63.7995 257.852 71.253 254.876 79.6103C253.985 82.6001 252.483 85.5759 250.995 89.1497C248.908 93.9193 246.515 98.9949 244.137 104.071L243.831 104.668C223.243 149.125 201.153 194.472 178.173 238.622L177.283 240.416C174.891 244.88 172.512 249.664 170.119 254.141C167.727 258.911 165.042 263.389 161.759 267.268C155.486 274.43 147.139 278.309 137.889 278.309C128.638 278.309 120.278 274.43 114.019 267.268C110.736 263.389 108.051 258.911 105.658 254.141C103.266 249.664 100.887 244.894 98.4945 240.43L97.5903 238.636C74.9163 194.194 52.8265 148.847 32.2391 104.39L32.2391 104.098C29.8465 99.3287 27.7599 93.9472 25.3812 89.1775C23.8928 85.5898 22.3905 82.614 21.5002 79.6382C19.1215 71.8649 18.2312 64.4114 19.4275 56.652ZM138.501 70.6829C154.609 90.9713 165.056 110.064 168.645 126.167C170.133 133.036 170.439 139.002 169.535 144.369C168.937 149.139 167.142 153.325 164.764 156.898C159.088 164.95 149.546 170.025 138.501 170.025C127.456 170.025 117.607 165.242 112.238 156.898C109.845 153.311 108.065 149.139 107.467 144.369C106.576 139.002 106.869 132.73 108.357 126.167C111.932 110.356 122.379 91.2634 138.501 70.6829ZM3.9035 86.1878C5.39192 89.7616 6.89424 93.6412 8.38265 96.923C10.7752 102.291 13.1539 107.366 15.2544 112.136L15.5465 112.428C36.134 157.177 58.2237 202.523 81.4959 247.272L82.3862 249.066C84.7788 253.543 87.1575 258.313 89.5501 263.083C92.5408 268.45 95.5176 274.124 100.289 279.491C109.845 291.437 123.575 298 138.195 298C153.121 298 166.544 291.437 176.407 280.103C180.886 274.736 184.169 269.062 187.146 263.695C189.538 258.925 191.917 254.155 194.31 249.678L195.2 247.898C218.18 203.149 240.562 157.802 261.149 113.054L261.441 112.456C263.528 107.686 265.92 102.61 268.313 97.2428C269.913 93.7108 271.401 90.1231 272.792 86.5076C276.673 75.4664 277.87 65.0232 276.381 54.288C273.098 31.9136 258.172 13.1131 237.585 4.76964C229.823 1.48789 221.769 -3.0681e-05 213.409 -2.99501e-05C211.016 -2.9741e-05 208.039 0.291998 205.647 0.597924C195.798 1.79382 185.657 5.06166 175.809 10.7352C163.567 17.5907 151.938 27.436 138.807 41.7589C125.675 27.436 113.74 17.5907 101.805 10.7352C91.9565 5.06166 81.8158 1.79383 71.9672 0.597936C69.5746 0.29201 66.5978 -1.71155e-05 64.2052 -1.69064e-05C55.8451 -1.61755e-05 47.4988 1.48791 40.0289 4.76966C19.1354 13.127 4.51554 32.2196 1.23268 54.288C-1.15991 64.7173 0.0363976 75.1466 3.9035 86.1878Z" fill="#FF5A5F"/>
</svg>
